0
SECTION
2
HEADER
9
$INSUNITS
70
4
9
$ACADVER
1
AC1014
9
$HANDSEED
5
FFFF
0
ENDSEC
0
SECTION
2
TABLES
0
TABLE
2
VPORT
5
8
100
AcDbSymbolTable
0
ENDTAB
0
TABLE
2
LTYPE
5
5
100
AcDbSymbolTable
0
LTYPE
5
14
100
AcDbSymbolTableRecord
100
AcDbLinetypeTableRecord
2
BYBLOCK
70
0
0
LTYPE
5
15
100
AcDbSymbolTableRecord
100
AcDbLinetypeTableRecord
2
BYLAYER
70
0
0
ENDTAB
0
TABLE
2
LAYER
5
2
100
AcDbSymbolTable
70
2
0
LAYER
5
50
100
AcDbSymbolTableRecord
100
AcDbLayerTableRecord
2
0
70
0
6
CONTINUOUS
0
ENDTAB
0
TABLE
2
STYLE
5
3
100
AcDbSymbolTable
70
1
0
STYLE
5
11
100
AcDbSymbolTableRecord
100
AcDbTextStyleTableRecord
2
STANDARD
70
0
0
ENDTAB
0
TABLE
2
VIEW
5
6
100
AcDbSymbolTable
70
0
0
ENDTAB
0
TABLE
2
UCS
5
7
100
AcDbSymbolTable
70
0
0
ENDTAB
0
TABLE
2
APPID
5
9
100
AcDbSymbolTable
70
2
0
APPID
5
12
100
AcDbSymbolTableRecord
100
AcDbRegAppTableRecord
2
ACAD
70
0
0
ENDTAB
0
TABLE
2
DIMSTYLE
5
A
100
AcDbSymbolTable
70
1
0
ENDTAB
0
TABLE
2
BLOCK_RECORD
5
1
100
AcDbSymbolTable
70
1
0
BLOCK_RECORD
5
1F
100
AcDbSymbolTableRecord
100
AcDbBlockTableRecord
2
*MODEL_SPACE
0
BLOCK_RECORD
5
1B
100
AcDbSymbolTableRecord
100
AcDbBlockTableRecord
2
*PAPER_SPACE
0
ENDTAB
0
ENDSEC
0
SECTION
2
BLOCKS
0
BLOCK
5
20
100
AcDbEntity
100
AcDbBlockBegin
2
*MODEL_SPACE
0
ENDBLK
5
21
100
AcDbEntity
100
AcDbBlockEnd
0
BLOCK
5
1C
100
AcDbEntity
100
AcDbBlockBegin
2
*PAPER_SPACE
0
ENDBLK
5
1D
100
AcDbEntity
100
AcDbBlockEnd
0
ENDSEC
0
SECTION
2
ENTITIES
0
LWPOLYLINE
5
100
100
AcDbEntity
8
0
100
AcDbPolyline
90
4
70
1
43
0.0
10
-148
20
-105
10
148
20
-105
10
148
20
105
10
-148
20
105
0
CIRCLE
5
101
100
AcDbEntity
8
0
100
AcDbCircle
10
-119.71572875253811
20
76.715728752538084
30
0
40
4.0000000000000036
210
0
220
0
230
1
0
CIRCLE
5
102
100
AcDbEntity
8
0
100
AcDbCircle
10
119.71572875253806
20
76.715728752538141
30
0
40
4.0000000000000062
210
0
220
-0
230
1
0
CIRCLE
5
103
100
AcDbEntity
8
0
100
AcDbCircle
10
119.71572875253855
20
-76.715728752535554
30
0
40
4.0000000000000107
210
0
220
-0
230
1
0
CIRCLE
5
104
100
AcDbEntity
8
0
100
AcDbCircle
10
99.999999999999858
20
-54.999999999999943
30
0
40
1.5999999999999983
210
0
220
-0
230
1
0
CIRCLE
5
105
100
AcDbEntity
8
0
100
AcDbCircle
10
119.99999999999974
20
-35
30
0
40
1.5999999999999983
210
0
220
-0
230
1
0
CIRCLE
5
106
100
AcDbEntity
8
0
100
AcDbCircle
10
79.999999999999844
20
-35.000000000000085
30
0
40
1.5999999999999983
210
0
220
-0
230
1
0
CIRCLE
5
107
100
AcDbEntity
8
0
100
AcDbCircle
10
99.999999999999744
20
-15.000000000000151
30
0
40
1.5999999999999983
210
0
220
-0
230
1
0
CIRCLE
5
108
100
AcDbEntity
8
0
100
AcDbCircle
10
-100.00000000000043
20
-14.999999999999964
30
0
40
1.6000000000000003
210
0
220
-0
230
1
0
CIRCLE
5
109
100
AcDbEntity
8
0
100
AcDbCircle
10
-80.000000000000284
20
-34.999999999999801
30
0
40
1.6000000000000003
210
0
220
-0
230
1
0
CIRCLE
5
110
100
AcDbEntity
8
0
100
AcDbCircle
10
-120.00000000000026
20
-35.000000000000085
30
0
40
1.6000000000000003
210
0
220
-0
230
1
0
CIRCLE
5
111
100
AcDbEntity
8
0
100
AcDbCircle
10
-100.00000000000013
20
-54.999999999999893
30
0
40
1.6000000000000003
210
0
220
-0
230
1
0
CIRCLE
5
112
100
AcDbEntity
8
0
100
AcDbCircle
10
-119.71572875253821
20
-76.715728752537871
30
0
40
4.0000000000000142
210
0
220
-0
230
1
0
CIRCLE
5
113
100
AcDbEntity
8
0
100
AcDbCircle
10
-100.00000000000016
20
-35.000000000000014
30
0
40
4.1000000000000014
210
0
220
0
230
1
0
CIRCLE
5
114
100
AcDbEntity
8
0
100
AcDbCircle
10
99.999999999999801
20
-35.000000000000028
30
0
40
4.1000000000000014
210
0
220
0
230
1
0
LINE
5
115
100
AcDbEntity
8
0
100
AcDbLine
10
0
20
0
30
0
11
0
21
-105
31
0
0
LINE
5
116
100
AcDbEntity
8
0
100
AcDbLine
10
0
20
-52.5
30
0
11
30
21
-52.5
31
0
0
LINE
5
117
100
AcDbEntity
8
0
100
AcDbLine
10
30
20
-52.5
30
0
11
30
21
-72.5
31
0
0
LWPOLYLINE
5
118
100
AcDbEntity
8
0
100
AcDbPolyline
90
4
70
1
43
0.0
10
30
20
-72.5
10
-30
20
-72.5
10
-30
20
-52.5
10
30
20
-52.5
0
CIRCLE
5
119
100
AcDbEntity
8
0
100
AcDbCircle
10
30
20
-72.5
30
0
40
1.6000000000000014
210
0
220
0
230
1
0
CIRCLE
5
120
100
AcDbEntity
8
0
100
AcDbCircle
10
-30
20
-72.5
30
0
40
1.6000000000000014
210
0
220
0
230
1
0
CIRCLE
5
121
100
AcDbEntity
8
0
100
AcDbCircle
10
30
20
-52.5
30
0
40
1.6000000000000014
210
0
220
0
230
1
0
CIRCLE
5
122
100
AcDbEntity
8
0
100
AcDbCircle
10
-30
20
-52.5
30
0
40
1.6000000000000014
210
0
220
0
230
1
0
LINE
5
123
100
AcDbEntity
8
0
100
AcDbLine
10
123.71572875253806
20
76.715728752538141
30
0
11
115.71572875253806
21
76.715728752538141
31
0
0
LINE
5
124
100
AcDbEntity
8
0
100
AcDbLine
10
119.71572875253806
20
72.715728752538126
30
0
11
119.71572875253806
21
80.715728752538141
31
0
0
LINE
5
125
100
AcDbEntity
8
0
100
AcDbLine
10
-119.71572875253811
20
72.715728752538084
30
0
11
-119.71572875253811
21
80.715728752538084
31
0
0
LINE
5
126
100
AcDbEntity
8
0
100
AcDbLine
10
-115.7157287525381
20
76.715728752538084
30
0
11
-123.71572875253811
21
76.715728752538084
31
0
0
LINE
5
127
100
AcDbEntity
8
0
100
AcDbLine
10
-100.00000000000016
20
-39.100000000000016
30
0
11
-100.00000000000016
21
-30.900000000000013
31
0
0
LINE
5
128
100
AcDbEntity
8
0
100
AcDbLine
10
-95.900000000000162
20
-35.000000000000014
30
0
11
-96.000001430511475
21
-35.000000000000014
31
0
0
LINE
5
129
100
AcDbEntity
8
0
100
AcDbLine
10
-96.000001430511475
20
-35.000000000000014
30
0
11
-104.10000000000016
21
-35.000000000000014
31
0
0
LINE
5
130
100
AcDbEntity
8
0
100
AcDbLine
10
-118.40000000000025
20
-35.000000000000014
30
0
11
-121.60000000000025
21
-35.000000000000014
31
0
0
LINE
5
131
100
AcDbEntity
8
0
100
AcDbLine
10
-120.00000000000026
20
-36.600000000000094
30
0
11
-120.00000000000026
21
-33.400000000000091
31
0
0
LINE
5
132
100
AcDbEntity
8
0
100
AcDbLine
10
-78.40000000000029
20
-35.000000000000014
30
0
11
-81.600000000000279
21
-35.000000000000014
31
0
0
LINE
5
133
100
AcDbEntity
8
0
100
AcDbLine
10
-80.000000000000284
20
-36.59999999999981
30
0
11
-80.000000000000284
21
-33.399999999999807
31
0
0
LINE
5
134
100
AcDbEntity
8
0
100
AcDbLine
10
-98.400000000000119
20
-54.999999999999893
30
0
11
-101.60000000000012
21
-54.999999999999893
31
0
0
LINE
5
135
100
AcDbEntity
8
0
100
AcDbLine
10
-100.00000000000013
20
-56.599999999999895
30
0
11
-100.00000000000013
21
-53.399999999999892
31
0
0
LINE
5
136
100
AcDbEntity
8
0
100
AcDbLine
10
-119.71572875253821
20
-80.715728752537871
30
0
11
-119.71572875253821
21
-72.715728752537842
31
0
0
LINE
5
137
100
AcDbEntity
8
0
100
AcDbLine
10
-115.7157287525382
20
-76.715728752537871
30
0
11
-123.71572875253824
21
-76.715728752537871
31
0
0
LINE
5
138
100
AcDbEntity
8
0
100
AcDbLine
10
-30
20
-74.099999999999994
30
0
11
-30
21
-70.900000000000006
31
0
0
LINE
5
139
100
AcDbEntity
8
0
100
AcDbLine
10
-28.399999999999999
20
-72.5
30
0
11
-31.600000000000001
21
-72.500000000000014
31
0
0
LINE
5
140
100
AcDbEntity
8
0
100
AcDbLine
10
31.600000000000001
20
-72.5
30
0
11
28.399999999999999
21
-72.5
31
0
0
LINE
5
141
100
AcDbEntity
8
0
100
AcDbLine
10
30
20
-74.099999999999994
30
0
11
30
21
-70.900000000000006
31
0
0
LINE
5
142
100
AcDbEntity
8
0
100
AcDbLine
10
30
20
-54.100000000000001
30
0
11
30.000000000000007
21
-50.899999999999999
31
0
0
LINE
5
143
100
AcDbEntity
8
0
100
AcDbLine
10
31.600000000000001
20
-52.5
30
0
11
28.399999999999999
21
-52.5
31
0
0
LINE
5
144
100
AcDbEntity
8
0
100
AcDbLine
10
123.71572875253855
20
-76.715728752535554
30
0
11
115.71572875253855
21
-76.715728752535554
31
0
0
LINE
5
145
100
AcDbEntity
8
0
100
AcDbLine
10
119.71572875253855
20
-80.715728752535568
30
0
11
119.71572875253855
21
-72.71572875253554
31
0
0
LINE
5
146
100
AcDbEntity
8
0
100
AcDbLine
10
99.999999999999858
20
-56.599999999999952
30
0
11
99.999999999999858
21
-53.399999999999949
31
0
0
LINE
5
147
100
AcDbEntity
8
0
100
AcDbLine
10
101.59999999999985
20
-54.999999999999943
30
0
11
98.399999999999864
21
-54.999999999999943
31
0
0
LINE
5
148
100
AcDbEntity
8
0
100
AcDbLine
10
104.09999999999981
20
-35.000000000000028
30
0
11
95.899999999999807
21
-35.000000000000028
31
0
0
LINE
5
149
100
AcDbEntity
8
0
100
AcDbLine
10
99.999999999999858
20
-39.10000000000003
30
0
11
99.999999999999858
21
-30.900000000000031
31
0
0
LINE
5
150
100
AcDbEntity
8
0
100
AcDbLine
10
121.59999999999975
20
-35
30
0
11
118.39999999999975
21
-35
31
0
0
LINE
5
151
100
AcDbEntity
8
0
100
AcDbLine
10
119.99999999999974
20
-36.599999999999994
30
0
11
119.99999999999974
21
-33.400000000000006
31
0
0
LINE
5
152
100
AcDbEntity
8
0
100
AcDbLine
10
81.599999999999838
20
-35
30
0
11
78.399999999999835
21
-35
31
0
0
LINE
5
153
100
AcDbEntity
8
0
100
AcDbLine
10
79.999999999999844
20
-36.600000000000087
30
0
11
79.999999999999844
21
-33.400000000000091
31
0
0
LINE
5
154
100
AcDbEntity
8
0
100
AcDbLine
10
99.999999999999744
20
-16.600000000000151
30
0
11
99.999999999999744
21
-13.400000000000151
31
0
0
LINE
5
155
100
AcDbEntity
8
0
100
AcDbLine
10
101.59999999999975
20
-15.000000000000151
30
0
11
98.39999999999975
21
-15.000000000000151
31
0
0
LINE
5
156
100
AcDbEntity
8
0
100
AcDbLine
10
-30
20
-54.100000000000001
30
0
11
-30.000000000000004
21
-50.899999999999999
31
0
0
LINE
5
157
100
AcDbEntity
8
0
100
AcDbLine
10
-28.399999999999999
20
-52.5
30
0
11
-31.600000000000001
21
-52.5
31
0
0
LINE
5
158
100
AcDbEntity
8
0
100
AcDbLine
10
-100.00000000000043
20
-16.599999999999966
30
0
11
-100.00000000000043
21
-13.399999999999963
31
0
0
LINE
5
159
100
AcDbEntity
8
0
100
AcDbLine
10
-98.400000000000432
20
-14.999999999999964
30
0
11
-101.60000000000042
21
-14.999999999999964
31
0
0
ENDSEC
0
SECTION
2
OBJECTS
0
DICTIONARY
5
C
100
AcDbDictionary
3
ACAD_GROUP
350
D
3
ACAD_MLINESTYLE
350
17
0
DICTIONARY
5
D
100
AcDbDictionary
0
DICTIONARY
5
1A
330
C
100
AcDbDictionary
0
DICTIONARY
5
17
100
AcDbDictionary
0
ENDSEC
0
EOF
